<?xml version="1.0" encoding="utf-8"?>
<!-- Generator: Adobe Illustrator 18.0.0, SVG Export Plug-In . SVG Version: 6.00 Build 0)  -->
<!DOCTYPE svg PUBLIC "-//W3C//DTD SVG 1.1//EN" "http://www.w3.org/Graphics/SVG/1.1/DTD/svg11.dtd">
<svg version="1.1" id="Layer_1" xmlns="http://www.w3.org/2000/svg" xmlns:xlink="http://www.w3.org/1999/xlink" x="0px" y="0px"
	 viewBox="0 0 512 512" enable-background="new 0 0 512 512" xml:space="preserve">
<path fill="#E9A722" d="M293.1,406.3c-65.8-37.5-91.6-81.9-68.4-122.5c23.1-40.6,74-46.2,136.8-3.8c29.3,19.8,20.4,33.2,46.9,53.5
	c11.7,9,27.1,23.8,49.7,14.8c22.6-9,26.5-59,26.5-92.3c0-109-102.4-197.4-228.6-197.4S27.4,147,27.4,256S129.7,453.3,256,453.3
	c28.2,0,38.4,2.6,46.2-12.4C312,421.4,304.4,412.7,293.1,406.3z"/>
<path fill="#FAC865" d="M468.2,182.4c-56.3,1.2-101.5,41.6-101.5,91.1c0,3.6,0.3,7.2,0.7,10.7c22.3,17.5,16.5,30.4,41,49.2
	c11.7,9,27.1,23.8,49.7,14.8c22.6-9,26.5-59,26.5-92.3C484.6,230,478.8,205.1,468.2,182.4z"/>
<path fill="#D98127" d="M255.8,58.6C129.6,58.7,27.4,147,27.4,256c0,9.7,0.8,19.2,2.4,28.6c30.6,22,70.2,35.3,113.5,35.3
	c26.3,0,51.2-4.9,73.6-13.6c1-7.5,3.6-15,7.8-22.4c13.6-23.9,36.9-35.7,66.6-32.6c17.2-22.9,27.2-50.1,27.2-79.2
	C318.5,126.4,294.2,85.7,255.8,58.6z"/>
<path fill="#E9A722" d="M219.7,333c-5.6-16.6-4.1-33.2,5-49.3c4.2-7.3,9.2-13.5,15.1-18.4c-4.8-55.4-57.7-99.1-122.2-99.1
	c-29.3,0-56.2,9-77.3,24c-8.4,20.6-13,42.7-13,65.7c0,43.9,16.6,84.4,44.7,117.2c14.1,4.9,29.5,7.7,45.6,7.7
	C160.2,380.8,197.7,361.8,219.7,333z"/>
<path fill="#FAC865" d="M220.8,291.8c-17.4-11.4-39.1-18.2-62.5-18.2c-52.1,0-95.2,33.4-103,77.1c30.4,47.9,83.2,83.8,146.3,97.1
	c29.4-11.8,51.5-35.1,58.5-63.4C222.6,354.6,208.3,322.3,220.8,291.8z"/>
<path fill="#E9A722" d="M293.1,406.3c-22.3-12.7-40-26.2-52.8-40.1c-1.2,0-2.5-0.1-3.7-0.1c-44.3,0-80.3,23.2-80.3,51.9
	c0,6.2,1.7,12.1,4.7,17.6c28.9,11.4,61,17.8,94.9,17.8c28.2,0,38.4,2.6,46.2-12.4C312,421.4,304.4,412.7,293.1,406.3z"/>
</svg>
